<svg width="76" height="36" viewBox="0 0 76 36" fill="none" xmlns="http://www.w3.org/2000/svg">
<path d="M75.0565 5.9545C73.0615 7.51017 39.9449 34.5933 39.9449 34.5933C39.0438 35.2954 37.5837 35.2954 36.6826 34.597C36.6826 34.597 2.56145 7.51017 0.84568 5.95449C-0.870095 4.39881 0.561455 2.06588 2.56145 0.899252C4.56145 -0.267379 7.76542 -0.378369 9.91344 1.0382C12.0615 2.45477 35.4978 21.023 36.6826 21.8986C37.8675 22.7741 38.6256 22.8585 39.9449 21.8986C41.2643 20.9386 65.0615 2.06589 66.7142 1.0382C68.3669 0.0105128 71.5615 -0.128386 73.5615 0.899267C75.5614 1.92692 77.0515 4.39884 75.0565 5.9545Z" fill="white"/>
</svg>
