<svg width="23" height="50" viewBox="0 0 23 50" fill="none" xmlns="http://www.w3.org/2000/svg">
<path d="M19.1005 49.3786C18.0817 48.0647 0.345199 26.2544 0.345199 26.2544C-0.114657 25.661 -0.114657 24.6993 0.342767 24.1059C0.342767 24.1059 18.0817 1.63393 19.1005 0.503937C20.1193 -0.62606 21.6471 0.31675 22.4111 1.63393C23.1751 2.95112 23.2478 5.06123 22.3201 6.47589C21.3924 7.89056 9.23222 23.3255 8.65884 24.1059C8.08545 24.8862 8.03018 25.3855 8.65884 26.2544C9.28749 27.1233 21.6471 42.796 22.3201 43.8844C22.9931 44.9729 23.0841 47.0768 22.4111 48.394C21.7381 49.7112 20.1192 50.6925 19.1005 49.3786Z" fill="white"/>
</svg>
