<svg width="76" height="36" viewBox="0 0 76 36" fill="none" xmlns="http://www.w3.org/2000/svg">
<path d="M1.02401 29.1659C3.01901 27.6102 36.1356 0.527104 36.1356 0.527104C37.0367 -0.175087 38.4968 -0.175083 39.3979 0.523392C39.3979 0.523392 73.5191 27.6102 75.2348 29.1659C76.9506 30.7216 75.5191 33.0545 73.5191 34.2212C71.5191 35.3878 68.3151 35.4988 66.1671 34.0822C64.0191 32.6656 40.5827 14.0974 39.3979 13.2218C38.213 12.3463 37.4549 12.2619 36.1356 13.2218C34.8162 14.1818 11.0191 33.0545 9.36634 34.0822C7.71364 35.1099 4.519 35.2488 2.51904 34.2212C0.51908 33.1935 -0.970992 30.7216 1.02401 29.1659Z" fill="white"/>
</svg>
