<svg width="352" height="359" viewBox="0 0 352 359" fill="none" xmlns="http://www.w3.org/2000/svg">
<path d="M336.827 78.8919C338.724 80.3941 340.201 82.3605 341.116 84.6009C350.51 107.533 353.393 132.613 349.446 157.078C345.499 181.543 334.876 204.444 318.747 223.258C302.618 242.073 281.609 256.07 258.034 263.708C234.459 271.347 209.233 272.33 185.135 266.55L92.775 358.5L65.7979 346.866L169.468 241.531C171.253 239.412 173.626 237.869 176.286 237.095C178.947 236.321 181.777 236.352 184.42 237.183C204.484 243.556 225.989 243.829 246.208 237.966C266.427 232.103 284.45 220.369 297.992 204.251C307.82 192.616 315.03 179.003 319.134 164.335C323.237 149.668 324.137 134.29 321.773 119.244L270.003 180.662C268.814 182.075 267.359 183.239 265.719 184.089C264.08 184.939 262.289 185.457 260.45 185.614C258.61 185.771 256.757 185.564 254.998 185.004C253.238 184.444 251.606 183.543 250.195 182.352L164.735 110.335C163.322 109.145 162.157 107.689 161.307 106.049C160.457 104.409 159.939 102.618 159.782 100.777C159.625 98.9368 159.832 97.0835 160.392 95.3233C160.952 93.5631 161.853 91.9304 163.044 90.5188L214.805 29.0933C196.673 29.3751 178.914 34.2817 163.21 43.3482C147.506 52.4147 134.376 65.3408 125.066 80.9018C115.756 96.4628 110.573 114.143 110.009 132.268C109.444 150.393 113.517 168.362 121.841 184.472C123.107 186.936 123.617 189.72 123.305 192.473C122.993 195.226 121.874 197.826 120.088 199.944L16.4589 305.284L0.422895 280.667L92.7749 188.718C82.9847 165.946 79.6716 140.914 83.2009 116.379C86.7301 91.8447 96.9646 68.761 112.776 49.6722C128.588 30.5834 149.363 16.2307 172.812 8.19612C196.261 0.161498 221.472 -1.24313 245.668 4.13706C248.031 4.65784 250.22 5.77977 252.022 7.39429C253.824 9.0088 255.178 11.0612 255.955 13.3528C256.731 15.6444 256.902 18.0976 256.452 20.4749C256.003 22.8523 254.947 25.0732 253.387 26.9227L193.606 97.8552L257.561 151.755L317.344 80.8546C318.904 79.0042 320.914 77.5874 323.181 76.7415C325.449 75.8956 327.896 75.649 330.286 76.0257C332.677 76.4024 334.929 77.3897 336.827 78.8919Z" fill="#454545"/>
</svg>
