<svg width="62" height="62" viewBox="0 0 62 62" fill="none" xmlns="http://www.w3.org/2000/svg">
<path d="M61 25H56.3C55.6618 22.2969 54.5902 19.7148 53.127 17.354L56.452 14.029C56.8424 13.6385 56.8424 13.0055 56.452 12.615L49.385 5.544C48.9945 5.15363 48.3615 5.15363 47.971 5.544L44.645 8.869C42.2845 7.40688 39.7028 6.33662 37 5.7V1C37 0.44775 36.5522 0 36 0H26C25.4478 0 25 0.44775 25 1V5.7C22.297 6.33787 19.7153 7.40938 17.355 8.873L14.029 5.544C13.6385 5.15363 13.0055 5.15363 12.615 5.544L5.544 12.615C5.15363 13.0055 5.15363 13.6385 5.544 14.029L8.869 17.354C7.40713 19.715 6.337 22.2971 5.7 25H1C0.44775 25 0 25.4478 0 26V36C0 36.5522 0.44775 37 1 37H5.7C6.33825 39.7031 7.40975 42.2853 8.873 44.646L5.544 47.971C5.15363 48.3615 5.15363 48.9945 5.544 49.385L12.615 56.456C13.0118 56.8311 13.6322 56.8311 14.029 56.456L17.354 53.131C19.715 54.5929 22.2971 55.663 25 56.3V61C25 61.5522 25.4478 62 26 62H36C36.5522 62 37 61.5522 37 61V56.3C39.7031 55.6618 42.2853 54.5902 44.646 53.127L47.971 56.452C48.3615 56.8424 48.9945 56.8424 49.385 56.452L56.456 49.381C56.8464 48.9905 56.8464 48.3575 56.456 47.967L53.131 44.642C54.5925 42.2822 55.6626 39.7015 56.3 37H61C61.5522 37 62 36.5522 62 36V26C62 25.4478 61.5522 25 61 25ZM60 35H55.5C55.0247 34.9999 54.615 35.3344 54.52 35.8C53.9091 38.8097 52.7206 41.6726 51.02 44.23C50.7569 44.6265 50.8095 45.1535 51.146 45.49L54.334 48.677L48.677 54.334L45.49 51.146C45.1535 50.8095 44.6265 50.7569 44.23 51.02C41.6726 52.7206 38.8097 53.9091 35.8 54.52C35.3344 54.615 34.9999 55.0247 35 55.5V60H27V55.5C27.0001 55.0247 26.6656 54.615 26.2 54.52C23.1903 53.9091 20.3274 52.7206 17.77 51.02C17.3735 50.7569 16.8465 50.8095 16.51 51.146L13.323 54.334L7.665 48.678L10.853 45.491C11.1895 45.1545 11.2421 44.6275 10.979 44.231C9.27838 41.6736 8.08988 38.8107 7.479 35.801C7.38438 35.3352 6.97525 35.0005 6.5 35H2V27H6.5C6.97525 27.0001 7.385 26.6656 7.48 26.2C8.09087 23.1903 9.27938 20.3274 10.98 17.77C11.2431 17.3735 11.1904 16.8465 10.854 16.51L7.665 13.322L13.322 7.665L16.51 10.853C16.8465 11.1895 17.3735 11.2421 17.77 10.979C20.3271 9.27875 23.1896 8.09013 26.199 7.479C26.6647 7.38438 26.9995 6.97525 27 6.5V2H35V6.5C34.9999 6.97525 35.3344 7.385 35.8 7.48C38.8094 8.09113 41.6719 9.27975 44.229 10.98C44.6255 11.2431 45.1525 11.1905 45.489 10.854L48.677 7.666L54.334 13.323L51.146 16.51C50.8095 16.8465 50.7569 17.3735 51.02 17.77C52.7206 20.3274 53.9091 23.1903 54.52 26.2C54.615 26.6656 55.0247 27.0001 55.5 27H60V35Z" fill="white"/>
<path d="M31 20C24.9249 20 20 24.9249 20 31C20 37.0751 24.9249 42 31 42C37.0751 42 42 37.0751 42 31C41.9929 24.9279 37.0721 20.0071 31 20ZM31 40C26.0295 40 22 35.9705 22 31C22 26.0294 26.0295 22 31 22C35.9706 22 40 26.0294 40 31C39.9945 35.9683 35.9683 39.9945 31 40Z" fill="white"/>
</svg>
