<svg width="65" height="65" viewBox="0 0 65 65" fill="none" xmlns="http://www.w3.org/2000/svg">
<path d="M62.4526 0.241811C62.314 0.104185 62.1311 0.0196121 61.9359 0.00301043C61.7408 -0.0135912 61.546 0.0388452 61.386 0.15107L54.5741 4.92936C54.4645 5.0063 54.3752 5.10843 54.3138 5.22706L52.5962 8.5528L29.1917 31.8184L28.3723 31.0038C28.1672 30.8 27.9238 30.6383 27.656 30.528C27.3881 30.4177 27.101 30.3609 26.811 30.3609C26.5211 30.3609 26.234 30.4177 25.9661 30.528C25.6982 30.6383 25.4548 30.8 25.2498 31.0038L24.9507 31.3012C24.5652 31.6844 24.3359 32.1958 24.3071 32.737C24.2783 33.2782 24.452 33.8108 24.7948 34.2322C24.7126 35.5993 24.1088 36.8838 23.1066 37.8235C22.1044 38.7633 20.7792 39.2875 19.4014 39.2892C19.3661 39.2892 19.3308 39.2914 19.2958 39.2958C17.813 39.4065 16.4194 40.0424 15.3684 41.088L1.81998 54.5561C1.24298 55.1296 0.785271 55.8105 0.472998 56.5599C0.160725 57.3093 0 58.1125 0 58.9236C0 59.7347 0.160725 60.5379 0.472998 61.2873C0.785271 62.0367 1.24298 62.7175 1.81998 63.2911C2.35195 63.8309 2.98672 64.26 3.68726 64.5534C4.38781 64.8468 5.1401 64.9986 5.90029 65C7.47939 65 9.0873 64.3528 10.3809 63.0664L23.9296 49.5984C24.9824 48.5522 25.6222 47.1649 25.7324 45.6891C25.7365 45.6559 25.7385 45.6225 25.7385 45.589C25.7385 42.5998 27.8773 40.1481 30.5673 39.97C30.9913 40.309 31.5264 40.4804 32.0698 40.4512C32.6132 40.422 33.1265 40.1942 33.5113 39.8116L33.8107 39.5141C34.2241 39.1021 34.4562 38.544 34.4562 37.9622C34.4562 37.3803 34.2241 36.8222 33.8107 36.4103L32.9913 35.5957L56.3966 12.3298L59.7421 10.6224C59.8614 10.5614 59.9641 10.4727 60.0415 10.3638L64.8481 3.59234C64.961 3.43324 65.0137 3.23962 64.997 3.04564C64.9802 2.85166 64.8951 2.66978 64.7567 2.53209L62.4526 0.241811ZM15.618 43.1763C15.7534 43.5342 15.7821 43.9233 15.7006 44.2969C15.6192 44.6706 15.4311 45.013 15.1588 45.2831L6.36183 54.0278C6.09019 54.2985 5.74575 54.4855 5.36983 54.5665C4.99391 54.6474 4.60248 54.6188 4.24251 54.4841L15.618 43.1763ZM10.4536 60.657C10.3192 60.2992 10.2909 59.9106 10.3722 59.5374C10.4534 59.1642 10.6408 58.822 10.912 58.5515L19.7094 49.8063C19.9815 49.5367 20.3258 49.3504 20.7013 49.2696C21.0768 49.1888 21.4678 49.2169 21.8277 49.3506L10.4536 60.657ZM24.0764 45.5434C24.0109 46.4849 23.6505 47.3824 23.0458 48.1099C22.3432 47.6821 21.5163 47.5016 20.6981 47.5973C19.8798 47.6931 19.1177 48.0596 18.5342 48.6379L9.73667 57.383C9.15233 57.9657 8.78308 58.7274 8.68877 59.5448C8.59447 60.3622 8.78063 61.1873 9.21709 61.8863L9.20573 61.8976C7.37079 63.7215 4.70114 63.8179 2.99585 62.1222C2.14236 61.2737 1.66287 60.123 1.66287 58.9231C1.66287 57.7232 2.14236 56.5725 2.99585 55.724L3.00665 55.7134C3.70971 56.1483 4.5401 56.3338 5.36272 56.2398C6.18533 56.1459 6.95175 55.778 7.53729 55.196L16.3347 46.451C16.9175 45.8715 17.2869 45.1137 17.3835 44.2999C17.48 43.4861 17.298 42.6637 16.8669 41.9653C17.5997 41.3637 18.5038 41.0056 19.452 40.9413C21.0069 40.928 22.5141 40.4062 23.7408 39.4564C24.9675 38.5066 25.8455 37.1817 26.2391 35.6864L29.1232 38.5534C26.2336 39.3806 24.0953 42.1977 24.0764 45.5434V45.5434ZM32.6357 38.3456L32.3362 38.6433C32.2322 38.7418 32.0941 38.7968 31.9504 38.7968C31.8068 38.7968 31.6686 38.7418 31.5647 38.6433L26.1259 33.2367C26.0236 33.1349 25.9661 32.997 25.9661 32.8531C25.9661 32.7093 26.0236 32.5713 26.1259 32.4696L26.4251 32.1722C26.5291 32.0735 26.6673 32.0185 26.811 32.0185C26.9547 32.0185 27.0929 32.0735 27.1968 32.1722L32.6356 37.5786C32.7378 37.6804 32.7952 37.8183 32.7952 37.9621C32.7952 38.1059 32.7379 38.2438 32.6357 38.3456V38.3456ZM58.8017 9.24554L55.5217 10.9191C55.445 10.9586 55.3749 11.0097 55.3139 11.0706L31.8162 34.4275L30.3669 32.9868L53.8639 9.6293C53.9252 9.56877 53.9766 9.49908 54.0163 9.42276L55.6998 6.16255L61.7727 1.90269L63.087 3.209L58.8017 9.24554Z" fill="white" fill-opacity="0.5"/>
</svg>
