<svg width="30" height="21" viewBox="0 0 30 21" fill="none" xmlns="http://www.w3.org/2000/svg">
<path d="M28.4615 0.997314H1.5385C0.692285 0.997314 0 1.6896 0 2.53575V19.4589C0 20.305 0.692285 20.9974 1.5385 20.9974H28.4616C29.3077 20.9974 30.0001 20.3051 30.0001 19.4589V2.53575C30 1.6896 29.3077 0.997314 28.4615 0.997314ZM27.8842 2.15108L15.885 11.1512C15.6693 11.3154 15.3381 11.4181 14.9999 11.4166C14.6619 11.4181 14.3307 11.3154 14.1149 11.1512L2.11576 2.15108H27.8842ZM21.4746 11.7451L28.0131 19.822C28.0196 19.8301 28.0277 19.8363 28.0346 19.8436H1.96535C1.97227 19.8359 1.98035 19.8301 1.98691 19.822L8.52539 11.7451C8.72572 11.4974 8.68775 11.1343 8.43961 10.9335C8.19193 10.7331 7.82883 10.7711 7.62844 11.0188L1.15383 19.0169V2.87226L13.423 12.0742C13.8842 12.4176 14.4453 12.5688 14.9999 12.5703C15.5537 12.5692 16.1153 12.418 16.5768 12.0742L28.8459 2.87226V19.0168L22.3715 11.0188C22.1711 10.7712 21.8077 10.7331 21.5603 10.9335C21.3122 11.1338 21.2742 11.4974 21.4746 11.7451Z" fill="white"/>
</svg>
