<svg width="58" height="52" viewBox="0 0 58 52" fill="none" xmlns="http://www.w3.org/2000/svg">
<path d="M55.1849 0.19178C55.0638 0.0827682 54.9038 0.0157787 54.7332 0.00262866C54.5626 -0.0105213 54.3924 0.031013 54.2524 0.119905L48.2974 3.90474C48.2016 3.96568 48.1235 4.04658 48.0699 4.14054L46.5683 6.77483L26.1078 25.2033L25.3914 24.5581C25.2122 24.3966 24.9994 24.2685 24.7652 24.1812C24.531 24.0938 24.28 24.0488 24.0266 24.0488C23.7731 24.0488 23.5221 24.0938 23.2879 24.1812C23.0537 24.2685 22.841 24.3966 22.6617 24.5581L22.4003 24.7936C22.0632 25.0971 21.8628 25.5022 21.8376 25.9309C21.8124 26.3595 21.9643 26.7814 22.2639 27.1152C22.1921 28.1981 21.6643 29.2155 20.7881 29.9599C19.9119 30.7042 18.7535 31.1194 17.549 31.1208C17.5181 31.1208 17.4873 31.1226 17.4566 31.1261C16.1604 31.2137 14.9421 31.7174 14.0232 32.5457L2.17906 43.2136C1.67464 43.6679 1.27451 44.2072 1.00151 44.8008C0.728521 45.3943 0.588013 46.0305 0.588013 46.673C0.588013 47.3155 0.728521 47.9517 1.00151 48.5453C1.27451 49.1388 1.67464 49.6782 2.17906 50.1325C2.64412 50.56 3.19904 50.8999 3.81147 51.1323C4.42389 51.3647 5.08156 51.485 5.74612 51.4861C7.12659 51.4861 8.53225 50.9735 9.66314 49.9545L21.5076 39.2866C22.428 38.4579 22.9873 37.3591 23.0836 36.1901C23.0872 36.1638 23.0889 36.1373 23.0889 36.1108C23.0889 33.7431 24.9587 31.8012 27.3104 31.66C27.6811 31.9286 28.1488 32.0644 28.6239 32.0412C29.0989 32.0181 29.5477 31.8377 29.884 31.5346L30.1458 31.2989C30.5072 30.9726 30.7101 30.5306 30.7101 30.0697C30.7101 29.6088 30.5072 29.1667 30.1458 28.8405L29.4294 28.1952L49.8906 9.76653L52.8153 8.4141C52.9196 8.36582 53.0094 8.29555 53.0771 8.20928L57.2791 2.8457C57.3777 2.71968 57.4238 2.56631 57.4092 2.41266C57.3946 2.25901 57.3202 2.11495 57.1991 2.00589L55.1849 0.19178ZM14.2415 34.1998C14.3598 34.4832 14.3849 34.7914 14.3137 35.0874C14.2425 35.3834 14.0781 35.6546 13.84 35.8685L6.14961 42.7951C5.91214 43.0095 5.61102 43.1577 5.28239 43.2218C4.95375 43.2859 4.61156 43.2632 4.29687 43.1565L14.2415 34.1998ZM9.72672 48.046C9.60919 47.7626 9.58448 47.4549 9.65551 47.1592C9.72655 46.8636 9.89034 46.5925 10.1274 46.3783L17.8182 39.4513C18.0561 39.2377 18.3571 39.0902 18.6854 39.0262C19.0137 38.9622 19.3554 38.9844 19.6701 39.0903L9.72672 48.046ZM21.6359 36.0747C21.5787 36.8205 21.2636 37.5314 20.735 38.1076C20.1208 37.7688 19.3979 37.6258 18.6825 37.7016C17.9672 37.7774 17.3009 38.0677 16.7908 38.5258L9.09994 45.4527C8.5891 45.9142 8.2663 46.5176 8.18385 47.1651C8.10141 47.8125 8.26416 48.4661 8.64571 49.0198L8.63578 49.0287C7.03165 50.4734 4.69781 50.5497 3.20702 49.2066C2.46089 48.5345 2.04172 47.6231 2.04172 46.6726C2.04172 45.7222 2.46089 44.8107 3.20702 44.1387L3.21647 44.1303C3.83109 44.4747 4.55703 44.6217 5.27617 44.5472C5.99531 44.4728 6.66533 44.1814 7.17721 43.7204L14.868 36.7936C15.3775 36.3346 15.7005 35.7343 15.7849 35.0897C15.8693 34.4451 15.7102 33.7937 15.3332 33.2405C15.9739 32.764 16.7643 32.4804 17.5932 32.4294C18.9525 32.4189 20.2701 32.0056 21.3425 31.2533C22.4149 30.501 23.1825 29.4515 23.5266 28.2671L26.0479 30.538C23.5217 31.1932 21.6524 33.4246 21.6359 36.0747ZM29.1186 30.3734L28.8568 30.6092C28.7659 30.6872 28.6451 30.7308 28.5195 30.7308C28.3939 30.7308 28.2732 30.6872 28.1823 30.6092L23.4276 26.3267C23.3382 26.2461 23.288 26.1368 23.288 26.0229C23.288 25.9089 23.3382 25.7997 23.4276 25.7191L23.6892 25.4835C23.7801 25.4053 23.9009 25.3618 24.0265 25.3618C24.1521 25.3618 24.2729 25.4053 24.3638 25.4835L29.1184 29.7659C29.2078 29.8465 29.258 29.9557 29.258 30.0696C29.258 30.1835 29.2079 30.2928 29.1186 30.3734ZM51.9932 7.32355L49.1258 8.64914C49.0587 8.68041 48.9975 8.72089 48.9442 8.76912L28.4022 27.2699L27.1352 26.1287L47.6766 7.62751C47.7302 7.57957 47.7751 7.52437 47.8098 7.46391L49.2815 4.88154L54.5905 1.50734L55.7395 2.54206L51.9932 7.32355Z" fill="white" fill-opacity="0.5"/>
</svg>
