<svg width="65" height="66" viewBox="0 0 65 66" fill="none" xmlns="http://www.w3.org/2000/svg">
<g opacity="0.5" clip-path="url(#clip0)">
<path d="M63.3776 10.7003C63.021 9.78217 62.2479 9.1161 61.3096 8.91858C60.3505 8.7161 59.3485 9.02534 58.6295 9.74447L51.9248 16.4491L48.651 13.1752L55.7818 6.04434C56.5242 5.30198 56.8428 4.26816 56.6346 3.27877C56.431 2.31146 55.7439 1.51452 54.7969 1.14676C48.5736 -1.27073 41.5027 0.217416 36.7827 4.93727C34.2975 7.42243 32.675 10.5603 32.0889 14.0137C31.9636 14.601 31.8422 15.2248 31.7139 15.8846C30.9642 19.7383 30.0311 24.5344 27.2954 27.2699L2.8009 51.7645C-0.223633 54.7891 -0.223633 59.7106 2.8009 62.7353C4.3133 64.2476 6.29983 65.0036 8.28635 65.0036C10.2728 65.0036 12.2594 64.2476 13.7717 62.7353L38.266 38.2408C41.0018 35.5051 45.7978 34.5722 49.6515 33.8223C50.3114 33.694 50.935 33.5726 51.5225 33.4473C54.9759 32.8612 58.1138 31.2387 60.5989 28.7535C61.3322 28.0202 61.5444 27.0248 61.2408 26.1399C64.5686 21.7317 65.3969 15.8994 63.3776 10.7003ZM60.4248 11.5396C60.5366 11.4279 60.6685 11.3778 60.7867 11.403C60.8881 11.4243 60.9635 11.4972 61.0111 11.6194C62.6341 15.7982 62.0731 20.4631 59.5805 24.1047L53.72 18.2443L60.4248 11.5396ZM58.8036 26.9584C56.6874 29.0745 54.0144 30.4542 51.0737 30.9485C51.0551 30.9515 51.0368 30.9551 51.0184 30.959C50.4462 31.0814 49.8247 31.2022 49.1666 31.3303C44.9736 32.146 39.7549 33.1612 36.4706 36.4456L11.9764 60.94C9.94194 62.9747 6.63115 62.9746 4.59625 60.9398C2.56162 58.9052 2.56162 55.5945 4.59625 53.5598L29.0907 29.0653C32.3751 25.781 33.3903 20.5625 34.206 16.3694C34.3341 15.7113 34.455 15.0898 34.5773 14.5175C34.5813 14.4991 34.5848 14.4808 34.588 14.4622C35.0819 11.5217 36.4617 8.84863 38.5781 6.73237C41.3111 3.99917 44.9718 2.54237 48.7005 2.54237C50.4405 2.54237 52.196 2.85985 53.8778 3.5131C54.0308 3.57251 54.1224 3.6695 54.1502 3.80139C54.1816 3.95029 54.1219 4.11341 53.9866 4.24861L45.9581 12.2771C45.4624 12.7728 45.4624 13.5766 45.9581 14.0725L58.8106 26.9249C58.8151 26.9293 58.8191 26.9335 58.8225 26.9375C58.8175 26.9439 58.8113 26.9507 58.8036 26.9584Z" fill="white"/>
<path d="M44.1625 15.8682C43.9243 15.6301 43.6015 15.4963 43.2649 15.4963C42.9282 15.4963 42.6053 15.6301 42.3673 15.8682L38.7769 19.4586C38.2812 19.9543 38.2812 20.7581 38.7769 21.254L43.846 26.3232C44.084 26.5612 44.407 26.695 44.7436 26.695C45.0803 26.695 45.4032 26.5612 45.6412 26.3232L49.2317 22.7327C49.7274 22.237 49.7274 21.4332 49.2317 20.9374L44.1625 15.8682ZM44.7435 23.6301L41.4696 20.3562L43.2649 18.561L46.5387 21.8348L44.7435 23.6301Z" fill="white"/>
<path d="M9.18366 56.3521C8.68782 55.8562 7.8844 55.8569 7.38869 56.3524C6.89297 56.8482 6.89323 57.6522 7.38894 58.148C7.63686 58.3958 7.96171 58.5199 8.28655 58.5199C8.6114 58.5199 8.93624 58.3958 9.18416 58.148C9.67988 57.6523 9.67988 56.8485 9.18416 56.3527L9.18366 56.3521Z" fill="white"/>
<path d="M31.8834 31.8584L11.4283 52.3134C10.9326 52.8091 10.9326 53.6129 11.4283 54.1087C11.6762 54.3565 12.001 54.4806 12.3259 54.4806C12.6507 54.4806 12.9756 54.3565 13.2235 54.1087L33.6787 33.6536C34.1744 33.1579 34.1744 32.3541 33.6787 31.8582C33.1828 31.3627 32.3793 31.3627 31.8834 31.8584Z" fill="white"/>
</g>
<defs>
<clipPath id="clip0">
<rect width="65" height="65" fill="white" transform="translate(0 0.00366211)"/>
</clipPath>
</defs>
</svg>
