<svg width="284" height="243" viewBox="0 0 284 243" fill="none" xmlns="http://www.w3.org/2000/svg">
<path d="M0.957127 205.589C1.46712 210.052 4.4633 213.398 5.89764 214.514C19.4442 183.596 56.0997 191.565 59.7652 217.701L116.023 216.586C110.764 192.361 134.51 156.822 172.919 175.787L173.556 164.95L143.276 108.054C139.196 106.524 132.917 104.866 130.367 105.823C127.817 106.779 124.948 112.304 123.514 115.066C121.92 117.776 122.398 119.523 123.354 120.326C155.068 146.954 134.989 160.487 125.267 161.125L89.4083 161.762C89.4083 142 77.9336 142 67.7338 142C57.534 142 18.9661 142.638 13.8662 142.956C8.76633 143.275 -0.102589 147.674 0.00089766 158.256C0.107145 172.174 0.447138 201.127 0.957127 205.589Z" fill="#3F7D20"/>
<path d="M183.437 130.206C180.122 131.991 168.774 132.863 163.515 133.075L165.109 142.478L176.743 140.088L187.899 138.813V131.163C187.793 130.1 186.752 128.422 183.437 130.206Z" fill="black"/>
<path d="M28.3681 137.856L32.9899 142.478L18.3277 142.797L19.4433 134.828L21.5151 61.9955L22.7901 34.4243L26.9338 27.89C30.015 27.3588 36.4323 26.2963 37.4523 26.2963H65.8204H84.945C85.7419 26.2963 99.4478 31.3962 100.882 31.8743C102.03 32.2568 106.673 36.9211 108.851 39.2054C112.623 45.1553 120.23 57.1188 120.485 57.3738C120.804 57.6925 135.944 86.0606 136.263 86.3794C136.581 86.6981 154.59 120.485 154.909 120.804C155.164 121.059 168.828 149.066 175.627 163.037L176.105 172.918C176.105 172.918 170.527 174.034 169.412 174.193C167.978 173.556 167.818 173.556 166.543 173.077C166.543 172.599 167.34 165.746 167.34 165.746C167.34 165.746 105.185 51.7958 104.07 50.0427C100.621 44.6241 90.6824 36.4961 79.2076 35.5399H33.3086C31.8743 35.5399 31.8743 35.6992 31.8743 36.3367C31.8743 36.9742 28.3681 137.856 28.3681 137.856Z" fill="black"/>
<path d="M26.2963 138.494L30.1212 142.637H20.0808V139.769V123.035L21.9933 58.6487L23.1089 29.4837C24.7557 28.6337 28.2088 26.9337 28.8463 26.9337H72.9922C77.7202 27.2525 87.3675 27.89 88.1325 27.89C89.0887 27.89 98.0135 31.5555 99.1291 31.5555C100.022 31.5555 104.388 35.4867 106.46 37.4523L131.482 81.1201L175.787 161.125L179.612 174.83C179.612 174.83 176.584 174.99 173.237 175.946C171.803 175.149 171.165 174.99 169.412 174.193C169.571 173.237 170.368 165.746 170.368 165.746C170.368 165.746 110.285 55.4612 106.46 48.4489C102.635 41.4366 90.8418 33.468 78.7296 33.1492C66.6173 32.8305 37.293 33.1492 33.6274 33.1492C29.9619 33.1492 29.4838 33.468 29.4838 35.8586C29.4838 38.2491 26.2963 138.494 26.2963 138.494Z" fill="black"/>
<path fill-rule="evenodd" clip-rule="evenodd" d="M14.185 142.956L25.341 142.638L22.791 140.088L26.7753 36.6554C26.7753 32.9942 26.7753 31.289 27.6259 30.4948C28.3674 29.8025 29.7554 29.8025 32.3533 29.8025H79.5273C87.3365 30.2275 104.357 34.2967 109.967 47.174C115.577 60.0512 134.51 93.1261 143.276 108.054L173.556 164.95L172.919 175.787C184.872 183.596 197.781 203.517 184.872 227.423V233.161H196.028L193 0H182.322L183.437 135.466C179.4 136.422 170.273 138.239 166.066 137.856L127.339 65.9798L129.57 63.7486V51.7957C128.242 51.477 124.693 51.9551 121.761 55.1425C120.52 53.2428 119.375 51.174 118.191 49.0346C111.928 37.7133 104.572 24.4166 76.0211 23.7464C69.5061 23.242 55.9407 23.436 43.2188 23.6179C39.8618 23.6659 36.5634 23.7131 33.4689 23.7464C20.4932 23.8859 20.2209 28.9113 19.7127 38.2879C19.6404 39.6218 19.5633 41.0437 19.4442 42.5522L16.8943 139.609L14.185 142.956ZM184.075 170.368L183.597 142C180.675 142 174.003 142.861 170.688 146.303L184.075 170.368Z" fill="black"/>
<path d="M86.742 139.163C71.7134 140.703 53.4426 140.271 46.1858 139.863C46.1858 139.863 37.7575 82.8223 37.9331 81.7725C38.1087 80.7227 41.0933 80.3728 41.2689 79.8478C41.4444 79.3229 39.8643 71.7992 43.3757 71.0993C46.8871 70.3994 63.566 88.4214 57.4212 125.165C87.7944 119.216 90.4289 125.515 92.8869 127.44C95.3448 129.365 92.0091 135.664 86.742 139.163Z" fill="black" stroke="black"/>
<path d="M124.428 93.4355C127.5 95.0031 121.863 108.456 121.863 108.456L118.95 113.273C115.905 117.108 109.853 126.121 107.329 123.811C104.805 121.502 111.495 114.19 114.023 107.348C121.154 99.1777 121.357 91.868 124.428 93.4355Z" fill="black" stroke="black"/>
<path d="M129.569 63.7539L127.338 65.9851L125.585 58.4947L129.569 51.801C129.569 51.801 135.147 48.2949 136.741 48.4542C138.334 48.6136 136.741 65.0289 135.625 65.6664C134.51 66.3039 129.569 63.7539 129.569 63.7539Z" fill="black"/>
<path d="M283.998 222.467C284.458 229.959 211.068 233.705 204.633 233.289V219.97C204.633 219.97 283.538 214.975 283.998 222.467Z" fill="black"/>
<path d="M259.455 210.016C259.773 214.001 209.078 215.994 204.633 215.772V208.688C204.633 208.688 259.138 206.031 259.455 210.016Z" fill="black"/>
<path d="M191.764 0H196.174C195.407 8.44103 198.577 232.044 198.577 233.32C197.621 233.32 191.883 233.16 191.883 233.16C191.883 191.799 189.079 41.1923 191.764 0Z" fill="black"/>
<path fill-rule="evenodd" clip-rule="evenodd" d="M152.668 178.184C110.384 178.928 110.831 242.651 152.668 242.651C194.504 242.651 194.951 177.439 152.668 178.184ZM152.518 197.628C136.241 197.124 135.23 222.712 152.518 223.115C169.807 223.518 168.796 198.132 152.518 197.628Z" fill="black"/>
<path fill-rule="evenodd" clip-rule="evenodd" d="M33.3749 242.406C7.02239 243.571 1.781 201.058 32.5014 200.184C63.2217 199.311 59.7275 241.242 33.3749 242.406ZM32.9898 213.558C24.3069 213.558 22.5867 227.664 32.9898 227.582C43.3929 227.501 41.6727 213.558 32.9898 213.558Z" fill="black"/>
</svg>
