<svg width="30" height="31" viewBox="0 0 30 31" fill="none" xmlns="http://www.w3.org/2000/svg">
<path d="M18.9995 0.997314C18.7235 0.997314 18.4995 1.22132 18.4995 1.49729C18.4995 1.77327 18.7235 1.99727 18.9995 1.99727C24.5135 1.99727 28.9995 6.48326 28.9995 11.9973C28.9995 12.2732 29.2235 12.4973 29.4995 12.4973C29.776 12.4973 29.9995 12.2732 29.9995 11.9973C29.9995 5.93184 25.065 0.997314 18.9995 0.997314Z" fill="white"/>
<path d="M18.9995 3.99731C18.7235 3.99731 18.4995 4.22132 18.4995 4.49729C18.4995 4.77327 18.7235 4.99727 18.9995 4.99727C22.8595 4.99727 25.9995 8.13725 25.9995 11.9973C25.9995 12.2733 26.2235 12.4973 26.4995 12.4973C26.776 12.4973 26.9995 12.2733 26.9995 11.9973C26.9995 7.58635 23.4109 3.99731 18.9995 3.99731Z" fill="white"/>
<path d="M18.9995 6.99731C18.7235 6.99731 18.4995 7.22132 18.4995 7.49729C18.4995 7.77327 18.7235 7.99727 18.9995 7.99727C21.205 7.99727 22.9995 9.79176 22.9995 11.9973C22.9995 12.2733 23.2235 12.4973 23.4995 12.4973C23.776 12.4973 23.9995 12.2733 23.9995 11.9973C23.9995 9.24034 21.7564 6.99731 18.9995 6.99731Z" fill="white"/>
<path d="M27.0569 19.7598C25.6964 19.5808 24.3549 19.2469 23.0699 18.7683C21.8254 18.3018 20.4114 18.6028 19.4644 19.5373L17.8839 21.1143C14.5699 19.1603 11.8014 16.3973 9.8429 13.0898L11.4244 11.5119C12.3594 10.5684 12.6614 9.15586 12.1939 7.91438C11.7144 6.63141 11.3799 5.2929 11.1999 3.93036C10.9604 2.24134 9.4979 0.990836 7.78843 0.99734H3.41395C3.31193 0.99734 3.20992 1.00232 3.10897 1.01134C2.20041 1.09337 1.37793 1.52386 0.793404 2.22288C0.208933 2.92238 -0.068098 3.80737 0.0149291 4.72284C0.49944 9.27686 2.07444 13.7153 4.56695 17.5553C6.82996 21.1093 9.90846 24.1818 13.4659 26.4378C17.2989 28.9188 21.7254 30.4903 26.2769 30.9838C26.3799 30.9928 26.4834 30.9973 26.5874 30.9973C26.5904 30.9973 26.5934 30.9973 26.5969 30.9973C28.4809 30.9893 30.0068 29.4533 29.9993 27.5748V23.2153C30.0389 21.4868 28.7768 20.0018 27.0569 19.7598ZM28.9994 23.1973C28.9994 23.2013 28.9994 23.2058 28.9994 23.2098V27.5773C29.0044 28.9063 27.9249 29.9923 26.5934 29.9978C26.5154 29.9948 26.4404 29.9948 26.3744 29.9888C21.9874 29.5128 17.7114 27.9948 14.0049 25.5958C10.5669 23.4153 7.59495 20.4493 5.40795 17.0143C2.9984 13.3024 1.47743 9.01535 1.00991 4.62487C0.9519 3.98386 1.14743 3.3589 1.56092 2.86437C1.97442 2.36984 2.5559 2.06538 3.19891 2.00738C3.27039 2.00087 3.34193 1.99736 3.41389 1.99736H7.79288C7.80091 1.99736 7.80888 1.99736 7.81691 1.99736C9.01491 1.99736 10.0414 2.88488 10.2089 4.06583C10.3984 5.49833 10.7509 6.91131 11.2573 8.26582C11.5879 9.14379 11.3744 10.1418 10.7158 10.8063L8.86386 12.6543C8.70384 12.8138 8.67085 13.0598 8.78235 13.2558C10.9013 16.9758 13.9919 20.0598 17.7184 22.1743C17.9143 22.2858 18.1593 22.2518 18.3184 22.0933L20.1683 20.2473C20.8368 19.5879 21.8383 19.3754 22.7193 19.7054C24.0753 20.2104 25.4908 20.5629 26.9213 20.7508C28.1364 20.9218 29.0299 21.9733 28.9994 23.1973Z" fill="white"/>
<path d="M7.5 2.99731H3.4135C3.37149 2.99731 3.33 2.99931 3.28852 3.00329C2.77905 3.04929 2.46751 3.33827 2.32753 3.50579C2.21503 3.64026 1.95803 4.00729 2.00303 4.51132C2.19206 6.28483 2.53401 8.01029 3.02051 9.64031C3.08549 9.85681 3.28401 9.99732 3.49952 9.99732C3.54703 9.99732 3.59502 9.99082 3.64301 9.97634C3.9075 9.89736 4.05803 9.61887 3.97899 9.35437C3.51 7.78336 3.18 6.11836 2.99848 4.41387C2.987 4.2869 3.0695 4.17739 3.09498 4.14639C3.136 4.09741 3.22746 4.01292 3.4135 3.99739H7.499C7.49953 3.99739 7.49953 3.99739 7.49953 3.99739C7.7755 3.99739 7.99951 3.77391 7.99951 3.49788C7.99998 3.22179 7.77597 2.99731 7.5 2.99731Z" fill="white"/>
<path d="M27.4995 22.9973C27.2235 22.9973 26.9995 23.2213 26.9995 23.4973L26.999 27.5768C26.9995 27.6893 26.9565 27.7953 26.878 27.8742C26.7995 27.9532 26.6955 27.9968 26.5965 27.9972L26.5505 27.9962C24.842 27.8107 23.191 27.4817 21.6435 27.0182C21.38 26.9387 21.1005 27.0893 21.021 27.3538C20.9415 27.6182 21.092 27.8967 21.3565 27.9763C22.962 28.4572 24.6735 28.7983 26.4515 28.9913C26.4925 28.9953 26.576 28.9972 26.5881 28.9972C26.9666 28.9957 27.3215 28.8472 27.5881 28.5788C27.8546 28.3098 28.0006 27.9528 27.999 27.5748L27.9995 23.4973C27.9995 23.2213 27.7755 22.9973 27.4995 22.9973Z" fill="white"/>
</svg>
