<svg width="678" height="678" viewBox="0 0 678 678" fill="none" xmlns="http://www.w3.org/2000/svg">
<g clip-path="url(#clip0)">
<path d="M298.704 624.36L378.704 624.36C387.118 624.36 395.029 621.084 400.978 615.135C406.927 609.185 410.204 601.275 410.204 592.861L410.204 423.273C410.204 412.359 407.004 401.789 400.939 392.692C396.533 386.083 394.203 378.391 394.203 370.449L394.203 327.112C403.491 323.972 410.204 315.194 410.204 304.861C410.204 291.902 399.662 281.361 386.704 281.361L362.204 281.361L362.204 26.607C362.205 24.6179 361.414 22.7101 360.008 21.3037L344.007 5.30326C341.079 2.37442 336.33 2.37442 333.401 5.30326L317.401 21.303C315.995 22.7094 315.204 24.6172 315.205 26.6063L315.205 281.36L290.705 281.36C284.226 281.359 278.351 283.995 274.096 288.251C269.84 292.506 267.205 298.381 267.205 304.86C267.205 315.193 273.918 323.972 283.205 327.111L283.205 370.448C283.205 378.391 280.876 386.082 276.47 392.692C276.457 392.711 276.443 392.733 276.428 392.756C270.394 401.827 267.206 412.378 267.205 423.273L267.205 592.862C267.205 601.276 270.482 609.186 276.431 615.135C282.379 621.084 290.29 624.361 298.704 624.36ZM394.705 577.36C390.018 577.36 386.205 573.547 386.205 568.86L386.205 440.86C386.205 438.607 387.094 436.477 388.708 434.864C390.322 433.249 392.451 432.36 394.705 432.36C394.873 432.36 395.039 432.346 395.205 432.334L395.204 577.386C395.039 577.375 394.873 577.36 394.705 577.36ZM330.204 29.7133L338.704 21.2132L347.204 29.7133L347.204 51.1061L330.204 51.1061L330.204 29.7133ZM330.204 66.1067L347.204 66.1067L347.204 281.361L330.204 281.361L330.204 66.1067ZM282.204 432.336C282.37 432.346 282.535 432.361 282.704 432.36C287.391 432.36 291.204 436.174 291.204 440.86L291.203 568.86C291.204 573.548 287.39 577.36 282.703 577.36C282.535 577.36 282.37 577.375 282.203 577.385L282.204 432.336ZM282.204 592.86L282.204 592.335C282.37 592.346 282.536 592.36 282.705 592.361C295.662 592.36 306.204 581.817 306.205 568.861L306.205 440.861C306.204 427.903 295.662 417.361 282.705 417.361C282.682 417.361 282.661 417.363 282.639 417.364C283.502 411.545 285.636 405.983 288.939 401.03C288.953 401.009 288.968 400.986 288.983 400.962C295.016 391.893 298.204 381.343 298.204 370.449L298.204 328.361L298.704 328.361C302.847 328.361 306.205 325.002 306.204 320.861C306.204 316.719 302.846 313.361 298.704 313.361L290.704 313.361C286.018 313.361 282.204 309.548 282.204 304.861C282.204 300.173 286.018 296.361 290.704 296.361L322.704 296.361L354.703 296.361L386.705 296.36C391.391 296.36 395.205 300.174 395.205 304.861C395.205 309.547 391.391 313.361 386.705 313.361L330.707 313.361C326.565 313.361 323.207 316.719 323.208 320.86C323.208 325.002 326.566 328.361 330.707 328.36L379.204 328.36L379.204 370.448C379.204 381.362 382.403 391.931 388.468 401.029C391.77 405.982 393.906 411.544 394.768 417.363C394.747 417.363 394.725 417.36 394.703 417.361C388.224 417.36 382.35 419.996 378.094 424.251C373.839 428.507 371.203 434.382 371.203 440.861L371.203 568.861C371.204 581.819 381.746 592.36 394.703 592.361C394.872 592.361 395.037 592.347 395.204 592.336L395.204 592.86C395.204 601.959 387.801 609.359 378.704 609.36L298.704 609.36C294.297 609.36 290.153 607.644 287.037 604.528C283.92 601.411 282.204 597.268 282.204 592.86Z" fill="#454545"/>
<path d="M355.308 585.464C359.755 581.016 362.204 575.12 362.204 568.86L362.204 440.861C362.204 434.602 359.755 428.705 355.308 424.258C350.861 419.811 344.963 417.361 338.704 417.361C332.224 417.361 326.351 419.996 322.095 424.252C317.84 428.507 315.204 434.383 315.204 440.861L315.205 496.861C315.205 501.003 318.563 504.361 322.704 504.36C326.847 504.36 330.205 501.002 330.204 496.861L330.204 440.862C330.203 436.176 334.017 432.362 338.704 432.362C340.957 432.362 343.087 433.251 344.701 434.866C346.315 436.48 347.204 438.609 347.204 440.862L347.205 568.862C347.205 571.114 346.315 573.244 344.701 574.859C343.087 576.473 340.958 577.362 338.705 577.362C334.018 577.362 330.205 573.548 330.205 568.862L330.205 560.861C330.205 556.719 326.847 553.361 322.705 553.362C318.563 553.362 315.205 556.72 315.206 560.861L315.206 568.862C315.206 581.82 325.747 592.362 338.706 592.362C344.963 592.36 350.86 589.912 355.308 585.464Z" fill="#454545"/>
<path d="M330.204 536.864L330.204 520.864C330.204 516.722 326.846 513.364 322.704 513.364C320.634 513.364 318.758 514.204 317.401 515.561C316.044 516.918 315.204 518.793 315.205 520.864L315.205 536.864C315.205 541.007 318.563 544.365 322.704 544.364C326.846 544.365 330.204 541.007 330.204 536.864Z" fill="#454545"/>
</g>
<defs>
<clipPath id="clip0">
<rect width="479" height="479" fill="white" transform="translate(677.408 338.704) rotate(135)"/>
</clipPath>
</defs>
</svg>
