<svg width="644" height="644" viewBox="0 0 644 644" fill="none" xmlns="http://www.w3.org/2000/svg">
<path d="M633.613 259.677H584.794C578.164 231.6 567.034 204.779 551.835 180.258L586.372 145.721C590.427 141.664 590.427 135.089 586.372 131.033L512.967 57.5861C508.911 53.5312 502.336 53.5312 498.279 57.5861L463.732 92.1232C439.213 76.9359 412.396 65.8191 384.323 59.2064V10.3871C384.323 4.65082 379.672 0 373.935 0H270.065C264.328 0 259.677 4.65082 259.677 10.3871V59.2064C231.601 65.8321 204.784 76.9619 180.268 92.1647L145.721 57.5861C141.664 53.5312 135.089 53.5312 131.033 57.5861L57.5861 131.033C53.5312 135.089 53.5312 141.664 57.5861 145.721L92.1232 180.258C76.9385 204.782 65.823 231.602 59.2064 259.677H10.3871C4.65082 259.677 0 264.328 0 270.065V373.935C0 379.672 4.65082 384.323 10.3871 384.323H59.2064C65.836 412.4 76.9658 439.221 92.1647 463.742L57.5861 498.279C53.5312 502.336 53.5312 508.911 57.5861 512.967L131.033 586.414C135.154 590.31 141.6 590.31 145.721 586.414L180.258 551.877C204.782 567.061 231.602 578.177 259.677 584.794V633.613C259.677 639.349 264.328 644 270.065 644H373.935C379.672 644 384.323 639.349 384.323 633.613V584.794C412.4 578.164 439.221 567.034 463.742 551.835L498.279 586.372C502.336 590.427 508.911 590.427 512.967 586.372L586.414 512.925C590.469 508.869 590.469 502.294 586.414 498.238L551.877 463.701C567.058 439.19 578.173 412.383 584.794 384.323H633.613C639.349 384.323 644 379.672 644 373.935V270.065C644 264.328 639.349 259.677 633.613 259.677ZM623.226 363.548H576.484C571.547 363.547 567.291 367.022 566.305 371.858C559.959 403.121 547.614 432.858 529.95 459.421C527.217 463.54 527.763 469.014 531.258 472.509L564.372 505.613L505.613 564.372L472.509 531.258C469.014 527.763 463.54 527.217 459.421 529.95C432.858 547.614 403.121 559.959 371.858 566.305C367.022 567.291 363.547 571.547 363.548 576.484V623.226H280.452V576.484C280.453 571.547 276.978 567.291 272.142 566.305C240.879 559.959 211.142 547.614 184.579 529.95C180.46 527.217 174.986 527.763 171.491 531.258L138.387 564.372L79.6171 505.623L112.731 472.519C116.226 469.024 116.773 463.55 114.04 459.432C96.3754 432.868 84.0303 403.131 77.6851 371.868C76.7022 367.031 72.4526 363.554 67.5161 363.548H20.7742V280.452H67.5161C72.4526 280.453 76.7087 276.978 77.6955 272.142C84.0407 240.879 96.3858 211.142 114.05 184.579C116.783 180.46 116.236 174.986 112.742 171.491L79.6171 138.377L138.377 79.6171L171.491 112.731C174.986 116.226 180.46 116.773 184.579 114.04C211.14 96.3793 240.873 84.0329 272.132 77.6851C276.969 76.7022 280.446 72.4526 280.452 67.5161V20.7742H363.548V67.5161C363.547 72.4526 367.022 76.7087 371.858 77.6955C403.117 84.0433 432.85 96.3897 459.411 114.05C463.529 116.783 469.003 116.237 472.499 112.742L505.613 79.6275L564.372 138.387L531.258 171.491C527.763 174.986 527.217 180.46 529.95 184.579C547.614 211.142 559.959 240.879 566.305 272.142C567.291 276.978 571.547 280.453 576.484 280.452H623.226V363.548Z" fill="#454545"/>
<path d="M322 207.742C258.897 207.742 207.742 258.897 207.742 322C207.742 385.103 258.897 436.258 322 436.258C385.103 436.258 436.258 385.103 436.258 322C436.184 258.928 385.072 207.816 322 207.742ZM322 415.484C270.371 415.484 228.516 373.629 228.516 322C228.516 270.37 270.371 228.516 322 228.516C373.63 228.516 415.484 270.37 415.484 322C415.427 373.606 373.606 415.427 322 415.484Z" fill="#454545"/>
</svg>
