<svg width="1113" height="1076" viewBox="0 0 1113 1076" fill="none" xmlns="http://www.w3.org/2000/svg">
<g opacity="0.5" clip-path="url(#clip0)">
<path d="M148 950.287L143.3 950.287C142.662 947.584 141.59 945.002 140.127 942.641L143.452 939.316C143.842 938.925 143.842 938.292 143.452 937.902L136.385 930.831C135.995 930.44 135.362 930.44 134.971 930.831L131.645 934.156C129.285 932.694 126.703 931.623 124 930.987L124 926.287C124 925.735 123.552 925.287 123 925.287L113 925.287C112.448 925.287 112 925.735 112 926.287L112 930.987C109.297 931.625 106.715 932.696 104.355 934.16L101.029 930.831C100.639 930.44 100.006 930.44 99.615 930.831L92.544 937.902C92.1536 938.292 92.1536 938.925 92.544 939.316L95.869 942.641C94.4071 945.002 93.337 947.584 92.7 950.287L88 950.287C87.4478 950.287 87 950.735 87 951.287L87 961.287C87 961.839 87.4478 962.287 88 962.287L92.7 962.287C93.3383 964.99 94.4098 967.572 95.873 969.933L92.544 973.258C92.1536 973.648 92.1536 974.281 92.544 974.672L99.615 981.743C100.012 982.118 100.632 982.118 101.029 981.743L104.354 978.418C106.715 979.88 109.297 980.95 112 981.587L112 986.287C112 986.839 112.448 987.287 113 987.287L123 987.287C123.552 987.287 124 986.839 124 986.287L124 981.587C126.703 980.949 129.285 979.877 131.646 978.414L134.971 981.739C135.362 982.129 135.995 982.129 136.385 981.739L143.456 974.668C143.846 974.277 143.846 973.644 143.456 973.254L140.131 969.929C141.593 967.569 142.663 964.988 143.3 962.287L148 962.287C148.552 962.287 149 961.839 149 961.287L149 951.287C149 950.735 148.552 950.287 148 950.287ZM147 960.287L142.5 960.287C142.025 960.287 141.615 960.621 141.52 961.087C140.909 964.097 139.721 966.959 138.02 969.517C137.757 969.913 137.81 970.44 138.146 970.777L141.334 973.964L135.677 979.621L132.49 976.433C132.154 976.096 131.627 976.044 131.23 976.307C128.673 978.007 125.81 979.196 122.8 979.807C122.334 979.902 122 980.312 122 980.787L122 985.287L114 985.287L114 980.787C114 980.312 113.666 979.902 113.2 979.807C110.19 979.196 107.327 978.007 104.77 976.307C104.374 976.044 103.847 976.096 103.51 976.433L100.323 979.621L94.665 973.965L97.853 970.778C98.1895 970.441 98.2421 969.914 97.979 969.518C96.2784 966.96 95.0899 964.098 94.479 961.088C94.3844 960.622 93.9753 960.287 93.5 960.287L89 960.287L89 952.287L93.5 952.287C93.9753 952.287 94.385 951.952 94.48 951.487C95.0909 948.477 96.2794 945.614 97.98 943.057C98.2431 942.66 98.1904 942.133 97.854 941.797L94.665 938.609L100.322 932.952L103.51 936.14C103.847 936.476 104.374 936.529 104.77 936.266C107.327 934.566 110.19 933.377 113.199 932.766C113.665 932.671 114 932.262 114 931.787L114 927.287L122 927.287L122 931.787C122 932.262 122.334 932.672 122.8 932.767C125.809 933.378 128.672 934.567 131.229 936.267C131.626 936.53 132.153 936.477 132.489 936.141L135.677 932.953L141.334 938.61L138.146 941.797C137.81 942.133 137.757 942.66 138.02 943.057C139.721 945.614 140.909 948.477 141.52 951.487C141.615 951.952 142.025 952.287 142.5 952.287L147 952.287L147 960.287Z" fill="white"/>
<path d="M118 945.287C111.925 945.287 107 950.212 107 956.287C107 962.362 111.925 967.287 118 967.287C124.075 967.287 129 962.362 129 956.287C128.993 950.215 124.072 945.294 118 945.287ZM118 965.287C113.03 965.287 109 961.257 109 956.287C109 951.316 113.03 947.287 118 947.287C122.971 947.287 127 951.316 127 956.287C126.995 961.255 122.968 965.281 118 965.287Z" fill="white"/>
</g>
<g opacity="0.5" clip-path="url(#clip1)">
<path d="M496.378 938.7C496.021 937.782 495.248 937.116 494.31 936.919C493.351 936.716 492.349 937.025 491.63 937.744L484.925 944.449L481.651 941.175L488.782 934.044C489.524 933.302 489.843 932.268 489.635 931.279C489.431 930.311 488.744 929.515 487.797 929.147C481.574 926.729 474.503 928.217 469.783 932.937C467.298 935.422 465.675 938.56 465.089 942.014C464.964 942.601 464.842 943.225 464.714 943.885C463.964 947.738 463.031 952.534 460.295 955.27L435.801 979.765C432.776 982.789 432.776 987.711 435.801 990.735C437.313 992.248 439.3 993.004 441.286 993.004C443.273 993.004 445.259 992.248 446.772 990.735L471.266 966.241C474.002 963.505 478.798 962.572 482.652 961.822C483.311 961.694 483.935 961.573 484.523 961.447C487.976 960.861 491.114 959.239 493.599 956.754C494.332 956.02 494.544 955.025 494.241 954.14C497.569 949.732 498.397 943.899 496.378 938.7ZM493.425 939.54C493.537 939.428 493.668 939.378 493.787 939.403C493.888 939.424 493.964 939.497 494.011 939.619C495.634 943.798 495.073 948.463 492.58 952.105L486.72 946.244L493.425 939.54ZM491.804 954.958C489.687 957.075 487.014 958.454 484.074 958.948C484.055 958.952 484.037 958.955 484.018 958.959C483.446 959.081 482.825 959.202 482.167 959.33C477.974 960.146 472.755 961.161 469.471 964.446L444.976 988.94C442.942 990.975 439.631 990.975 437.596 988.94C435.562 986.905 435.562 983.595 437.596 981.56L462.091 957.065C465.375 953.781 466.39 948.563 467.206 944.369C467.334 943.711 467.455 943.09 467.577 942.518C467.581 942.499 467.585 942.481 467.588 942.462C468.082 939.522 469.462 936.849 471.578 934.732C474.311 931.999 477.972 930.542 481.7 930.542C483.44 930.542 485.196 930.86 486.878 931.513C487.031 931.573 487.122 931.669 487.15 931.801C487.182 931.95 487.122 932.113 486.987 932.249L478.958 940.277C478.462 940.773 478.462 941.577 478.958 942.072L491.811 954.925C491.815 954.929 491.819 954.934 491.822 954.937C491.818 954.944 491.811 954.951 491.804 954.958Z" fill="white"/>
<path d="M477.162 943.868C476.924 943.63 476.602 943.496 476.265 943.496C475.928 943.496 475.605 943.63 475.367 943.868L471.777 947.459C471.281 947.954 471.281 948.758 471.777 949.254L476.846 954.323C477.084 954.561 477.407 954.695 477.744 954.695C478.08 954.695 478.403 954.561 478.641 954.323L482.232 950.733C482.727 950.237 482.727 949.433 482.232 948.937L477.162 943.868ZM477.743 951.63L474.47 948.356L476.265 946.561L479.539 949.835L477.743 951.63Z" fill="white"/>
<path d="M442.184 984.352C441.688 983.856 440.884 983.857 440.389 984.352C439.893 984.848 439.893 985.652 440.389 986.148C440.637 986.396 440.962 986.52 441.287 986.52C441.611 986.52 441.936 986.396 442.184 986.148C442.68 985.652 442.68 984.849 442.184 984.353L442.184 984.352Z" fill="white"/>
<path d="M464.883 959.858L444.428 980.313C443.933 980.809 443.933 981.613 444.428 982.109C444.676 982.357 445.001 982.481 445.326 982.481C445.651 982.481 445.976 982.357 446.223 982.109L466.679 961.654C467.174 961.158 467.174 960.354 466.679 959.858C466.183 959.363 465.379 959.363 464.883 959.858Z" fill="white"/>
</g>
<path d="M319.185 936.192C319.064 936.083 318.904 936.016 318.733 936.003C318.563 935.989 318.392 936.031 318.252 936.12L312.297 939.905C312.202 939.966 312.124 940.047 312.07 940.141L310.568 942.775L290.108 961.203L289.391 960.558C289.212 960.397 288.999 960.269 288.765 960.181C288.531 960.094 288.28 960.049 288.027 960.049C287.773 960.049 287.522 960.094 287.288 960.181C287.054 960.269 286.841 960.397 286.662 960.558L286.4 960.794C286.063 961.097 285.863 961.502 285.838 961.931C285.812 962.36 285.964 962.781 286.264 963.115C286.192 964.198 285.664 965.216 284.788 965.96C283.912 966.704 282.753 967.119 281.549 967.121C281.518 967.121 281.487 967.123 281.457 967.126C280.16 967.214 278.942 967.717 278.023 968.546L266.179 979.214C265.675 979.668 265.275 980.207 265.002 980.801C264.729 981.394 264.588 982.031 264.588 982.673C264.588 983.316 264.729 983.952 265.002 984.545C265.275 985.139 265.675 985.678 266.179 986.132C266.644 986.56 267.199 986.9 267.811 987.132C268.424 987.365 269.082 987.485 269.746 987.486C271.127 987.486 272.532 986.973 273.663 985.954L285.508 975.287C286.428 974.458 286.987 973.359 287.084 972.19C287.087 972.164 287.089 972.137 287.089 972.111C287.089 969.743 288.959 967.801 291.31 967.66C291.681 967.929 292.149 968.064 292.624 968.041C293.099 968.018 293.548 967.838 293.884 967.535L294.146 967.299C294.507 966.973 294.71 966.531 294.71 966.07C294.71 965.609 294.507 965.167 294.146 964.84L293.429 964.195L313.891 945.767L316.815 944.414C316.92 944.366 317.009 944.296 317.077 944.209L321.279 938.846C321.378 938.72 321.424 938.566 321.409 938.413C321.395 938.259 321.32 938.115 321.199 938.006L319.185 936.192ZM278.241 970.2C278.36 970.483 278.385 970.791 278.314 971.087C278.243 971.383 278.078 971.655 277.84 971.868L270.15 978.795C269.912 979.01 269.611 979.158 269.282 979.222C268.954 979.286 268.612 979.263 268.297 979.157L278.241 970.2ZM273.727 984.046C273.609 983.763 273.584 983.455 273.656 983.159C273.727 982.864 273.89 982.593 274.127 982.378L281.818 975.451C282.056 975.238 282.357 975.09 282.685 975.026C283.014 974.962 283.355 974.984 283.67 975.09L273.727 984.046ZM285.636 972.075C285.579 972.82 285.264 973.531 284.735 974.108C284.121 973.769 283.398 973.626 282.683 973.702C281.967 973.777 281.301 974.068 280.791 974.526L273.1 981.453C272.589 981.914 272.266 982.518 272.184 983.165C272.101 983.813 272.264 984.466 272.646 985.02L272.636 985.029C271.032 986.473 268.698 986.55 267.207 985.207C266.461 984.535 266.042 983.623 266.042 982.673C266.042 981.722 266.461 980.811 267.207 980.139L267.216 980.13C267.831 980.475 268.557 980.622 269.276 980.547C269.995 980.473 270.665 980.181 271.177 979.72L278.868 972.794C279.377 972.335 279.7 971.734 279.785 971.09C279.869 970.445 279.71 969.794 279.333 969.241C279.974 968.764 280.764 968.48 281.593 968.429C282.952 968.419 284.27 968.006 285.343 967.253C286.415 966.501 287.182 965.452 287.527 964.267L290.048 966.538C287.522 967.193 285.652 969.425 285.636 972.075ZM293.119 966.373L292.857 966.609C292.766 966.687 292.645 966.731 292.52 966.731C292.394 966.731 292.273 966.687 292.182 966.609L287.428 962.327C287.338 962.246 287.288 962.137 287.288 962.023C287.288 961.909 287.338 961.8 287.428 961.719L287.689 961.483C287.78 961.405 287.901 961.362 288.027 961.362C288.152 961.362 288.273 961.405 288.364 961.483L293.118 965.766C293.208 965.846 293.258 965.956 293.258 966.07C293.258 966.184 293.208 966.293 293.119 966.373ZM315.993 943.324L313.126 944.649C313.059 944.68 312.997 944.721 312.944 944.769L292.402 963.27L291.135 962.129L311.677 943.628C311.73 943.58 311.775 943.524 311.81 943.464L313.282 940.882L318.591 937.507L319.739 938.542L315.993 943.324Z" fill="white" fill-opacity="0.5"/>
<path d="M754.116 300.601C753.201 298.361 751.724 296.394 749.827 294.892C747.929 293.39 745.677 292.403 743.286 292.026C740.896 291.649 738.449 291.896 736.182 292.742C733.914 293.588 731.904 295.004 730.344 296.855L670.561 367.755L606.606 313.855L666.387 242.923C667.947 241.073 669.003 238.852 669.452 236.475C669.902 234.098 669.731 231.644 668.955 229.353C668.178 227.061 666.824 225.009 665.022 223.394C663.22 221.78 661.031 220.658 658.668 220.137C634.472 214.757 609.261 216.162 585.812 224.196C562.363 232.231 541.588 246.583 525.776 265.672C509.965 284.761 499.73 307.845 496.201 332.379C492.672 356.914 495.985 381.946 505.775 404.718L294.745 655.115C273.283 651.173 251.155 653.082 230.685 660.643C210.215 668.204 192.159 681.136 178.411 698.083C164.664 715.03 155.733 735.365 152.557 756.954C149.381 778.543 152.075 800.589 160.359 820.777C161.274 823.018 162.751 824.984 164.648 826.486C166.545 827.988 168.798 828.976 171.189 829.352C173.579 829.729 176.026 829.483 178.293 828.637C180.561 827.791 182.571 826.374 184.131 824.523L236.493 762.393L291.237 808.531L238.875 870.661C237.315 872.511 236.259 874.732 235.81 877.11C235.36 879.488 235.532 881.942 236.308 884.234C237.084 886.526 238.439 888.579 240.241 890.194C242.042 891.809 244.231 892.932 246.594 893.454C258.68 896.145 271.105 896.989 283.445 895.956C302.064 894.352 320.062 888.477 336.041 878.786C352.02 869.096 365.549 855.851 375.577 840.081C385.605 824.311 391.86 806.441 393.858 787.86C395.856 769.28 393.543 750.488 387.097 732.947L598.135 482.55C622.233 488.33 647.459 487.347 671.034 479.708C694.609 472.07 715.618 458.073 731.747 439.258C747.876 420.444 758.499 397.543 762.446 373.078C766.393 348.613 763.51 323.533 754.116 300.601ZM710.992 420.251C697.45 436.369 679.427 448.103 659.208 453.966C638.989 459.829 617.484 459.556 597.42 453.183C594.777 452.352 591.947 452.321 589.286 453.095C586.626 453.869 584.253 455.412 582.468 457.531L360.12 721.313C358.412 723.342 357.312 725.812 356.947 728.438C356.581 731.065 356.966 733.741 358.056 736.159C365.293 752.25 367.856 770.052 365.452 787.53C363.049 805.009 355.775 821.458 344.464 834.998C336.236 844.815 326.067 852.824 314.595 858.522C303.123 864.219 290.596 867.482 277.803 868.106L321.802 815.899C322.993 814.488 323.894 812.856 324.453 811.097C325.013 809.337 325.22 807.484 325.064 805.645C324.907 803.805 324.388 802.014 323.539 800.375C322.689 798.736 321.524 797.28 320.112 796.091L243.901 731.825C242.49 730.634 240.858 729.733 239.099 729.173C237.339 728.614 235.487 728.406 233.647 728.563C231.807 728.72 230.016 729.238 228.377 730.088C226.738 730.938 225.282 732.102 224.093 733.515L180.095 785.722C178.288 770.608 180.203 755.283 185.672 741.078C191.141 726.874 199.999 714.221 211.474 704.221C222.949 694.221 236.694 687.177 251.512 683.701C266.331 680.226 281.775 680.425 296.499 684.28C299.067 684.943 301.769 684.868 304.296 684.063C306.822 683.258 309.07 681.757 310.781 679.731L533.088 415.944C534.874 413.826 535.993 411.226 536.305 408.473C536.617 405.72 536.107 402.936 534.841 400.472C526.517 384.362 522.444 366.393 523.009 348.268C523.573 330.143 528.756 312.463 538.066 296.902C547.377 281.341 560.506 268.415 576.21 259.348C591.914 250.282 609.674 245.375 627.805 245.093L576.044 306.519C574.853 307.93 573.952 309.563 573.392 311.323C572.832 313.084 572.625 314.937 572.782 316.777C572.939 318.618 573.457 320.409 574.307 322.049C575.157 323.689 576.322 325.145 577.735 326.335L663.195 398.352C664.606 399.543 666.238 400.444 667.998 401.004C669.757 401.564 671.61 401.771 673.45 401.614C675.289 401.457 677.08 400.939 678.719 400.089C680.359 399.239 681.814 398.075 683.003 396.662L734.773 335.244C737.137 350.29 736.237 365.668 732.134 380.335C728.031 395.003 720.82 408.616 710.992 420.251Z" fill="#454545"/>
<rect x="0.540694" y="87.8893" width="1027.55" height="1027.55" transform="rotate(-4.87643 0.540694 87.8893)" stroke="black"/>
<defs>
<clipPath id="clip0">
<rect width="62" height="62" fill="white" transform="translate(87 925.287)"/>
</clipPath>
<clipPath id="clip1">
<rect width="65" height="65" fill="white" transform="translate(433 928.004)"/>
</clipPath>
</defs>
</svg>
